<mxfile host="app.diagrams.net" modified="2022-09-12T04:33:25.689Z" agent="5.0 (X11)" etag="U3iqxlCt61pnDT8Y03g4" version="20.3.0" type="github" pages="3">
  <diagram id="uxezb6ABfdkSh2dHg879" name="P&amp;F Diagnosis">
    <mxGraphModel dx="796" dy="452" grid="1" gridSize="10" guides="1" tooltips="1" connect="1" arrows="1" fold="1" page="1" pageScale="1" pageWidth="850" pageHeight="1100" math="0" shadow="0">
      <root>
        <mxCell id="0" />
        <mxCell id="1" parent="0" />
        <mxCell id="ZiwH8skRQP66M6-5ivaw-23" style="edgeStyle=none;rounded=0;orthogonalLoop=1;jettySize=auto;html=1;entryX=0;entryY=0.5;entryDx=0;entryDy=0;" parent="1" source="ZiwH8skRQP66M6-5ivaw-1" edge="1">
          <mxGeometry relative="1" as="geometry">
            <mxPoint x="240" y="227.5" as="targetPoint" />
          </mxGeometry>
        </mxCell>
        <mxCell id="ZiwH8skRQP66M6-5ivaw-24" style="edgeStyle=none;rounded=0;orthogonalLoop=1;jettySize=auto;html=1;entryX=0.5;entryY=1;entryDx=0;entryDy=0;entryPerimeter=0;" parent="1" source="ZiwH8skRQP66M6-5ivaw-1" target="zuNmU7Vg8F4qBSnEC6h9-6" edge="1">
          <mxGeometry relative="1" as="geometry">
            <mxPoint x="240" y="345.8299999999999" as="targetPoint" />
          </mxGeometry>
        </mxCell>
        <mxCell id="ZiwH8skRQP66M6-5ivaw-1" value="Patients symptoms" style="ellipse;whiteSpace=wrap;html=1;" parent="1" vertex="1">
          <mxGeometry x="80" y="256.67" width="80" height="53.33" as="geometry" />
        </mxCell>
        <mxCell id="ZiwH8skRQP66M6-5ivaw-19" value="Disease" style="ellipse;whiteSpace=wrap;html=1;" parent="1" vertex="1">
          <mxGeometry x="630" y="260" width="80" height="53.33" as="geometry" />
        </mxCell>
        <mxCell id="ZiwH8skRQP66M6-5ivaw-26" style="edgeStyle=none;rounded=0;orthogonalLoop=1;jettySize=auto;html=1;entryX=0;entryY=0.5;entryDx=0;entryDy=0;exitX=0.992;exitY=0.615;exitDx=0;exitDy=0;exitPerimeter=0;" parent="1" edge="1">
          <mxGeometry relative="1" as="geometry">
            <mxPoint x="368.96000000000004" y="234.97500000000002" as="sourcePoint" />
            <mxPoint x="440" y="286.66999999999996" as="targetPoint" />
          </mxGeometry>
        </mxCell>
        <mxCell id="ZiwH8skRQP66M6-5ivaw-25" style="edgeStyle=none;rounded=0;orthogonalLoop=1;jettySize=auto;html=1;entryX=0;entryY=0.5;entryDx=0;entryDy=0;" parent="1" edge="1">
          <mxGeometry relative="1" as="geometry">
            <mxPoint x="370" y="317.3455555555555" as="sourcePoint" />
            <mxPoint x="440" y="286.66999999999996" as="targetPoint" />
          </mxGeometry>
        </mxCell>
        <mxCell id="ZiwH8skRQP66M6-5ivaw-27" style="edgeStyle=none;rounded=0;orthogonalLoop=1;jettySize=auto;html=1;" parent="1" target="ZiwH8skRQP66M6-5ivaw-19" edge="1">
          <mxGeometry relative="1" as="geometry">
            <mxPoint x="570" y="286.66739999999993" as="sourcePoint" />
          </mxGeometry>
        </mxCell>
        <mxCell id="zuNmU7Vg8F4qBSnEC6h9-3" value="" style="group" parent="1" vertex="1" connectable="0">
          <mxGeometry x="240" y="200" width="130" height="60" as="geometry" />
        </mxCell>
        <mxCell id="zuNmU7Vg8F4qBSnEC6h9-1" value="" style="shape=cylinder3;whiteSpace=wrap;html=1;boundedLbl=1;backgroundOutline=1;size=15;rotation=90;" parent="zuNmU7Vg8F4qBSnEC6h9-3" vertex="1">
          <mxGeometry x="35" y="-35" width="60" height="130" as="geometry" />
        </mxCell>
        <mxCell id="zuNmU7Vg8F4qBSnEC6h9-2" value="&lt;div&gt;Doctors Diagnosis&lt;/div&gt;" style="text;html=1;strokeColor=none;fillColor=none;align=center;verticalAlign=middle;whiteSpace=wrap;rounded=0;" parent="zuNmU7Vg8F4qBSnEC6h9-3" vertex="1">
          <mxGeometry x="30" y="15" width="60" height="30" as="geometry" />
        </mxCell>
        <mxCell id="zuNmU7Vg8F4qBSnEC6h9-5" value="" style="group" parent="1" vertex="1" connectable="0">
          <mxGeometry x="240" y="300" width="130" height="60" as="geometry" />
        </mxCell>
        <mxCell id="zuNmU7Vg8F4qBSnEC6h9-6" value="" style="shape=cylinder3;whiteSpace=wrap;html=1;boundedLbl=1;backgroundOutline=1;size=15;rotation=90;" parent="zuNmU7Vg8F4qBSnEC6h9-5" vertex="1">
          <mxGeometry x="35" y="-35" width="60" height="130" as="geometry" />
        </mxCell>
        <mxCell id="zuNmU7Vg8F4qBSnEC6h9-7" value="Machine Diagnosis" style="text;html=1;strokeColor=none;fillColor=none;align=center;verticalAlign=middle;whiteSpace=wrap;rounded=0;" parent="zuNmU7Vg8F4qBSnEC6h9-5" vertex="1">
          <mxGeometry x="30" y="15" width="60" height="30" as="geometry" />
        </mxCell>
        <mxCell id="zuNmU7Vg8F4qBSnEC6h9-10" value="" style="group" parent="1" vertex="1" connectable="0">
          <mxGeometry x="440" y="256.66999999999996" width="130" height="60" as="geometry" />
        </mxCell>
        <mxCell id="zuNmU7Vg8F4qBSnEC6h9-11" value="" style="shape=cylinder3;whiteSpace=wrap;html=1;boundedLbl=1;backgroundOutline=1;size=15;rotation=90;" parent="zuNmU7Vg8F4qBSnEC6h9-10" vertex="1">
          <mxGeometry x="35" y="-35" width="60" height="130" as="geometry" />
        </mxCell>
        <mxCell id="zuNmU7Vg8F4qBSnEC6h9-12" value="Diagnosis" style="text;html=1;strokeColor=none;fillColor=none;align=center;verticalAlign=middle;whiteSpace=wrap;rounded=0;" parent="zuNmU7Vg8F4qBSnEC6h9-10" vertex="1">
          <mxGeometry x="30" y="15" width="60" height="30" as="geometry" />
        </mxCell>
      </root>
    </mxGraphModel>
  </diagram>
  <diagram id="yG34c73u5UwiiI6iJyam" name="P&amp;F Scheduling">
    <mxGraphModel dx="796" dy="452" grid="1" gridSize="10" guides="1" tooltips="1" connect="1" arrows="1" fold="1" page="1" pageScale="1" pageWidth="850" pageHeight="1100" math="0" shadow="0">
      <root>
        <mxCell id="0" />
        <mxCell id="1" parent="0" />
        <mxCell id="38nFqftCNJOTsRTNbehu-1" style="edgeStyle=none;rounded=0;orthogonalLoop=1;jettySize=auto;html=1;entryX=0.145;entryY=1;entryDx=0;entryDy=-4.35;entryPerimeter=0;" parent="1" source="38nFqftCNJOTsRTNbehu-3" target="38nFqftCNJOTsRTNbehu-9" edge="1">
          <mxGeometry relative="1" as="geometry">
            <mxPoint x="240" y="227.5" as="targetPoint" />
          </mxGeometry>
        </mxCell>
        <mxCell id="38nFqftCNJOTsRTNbehu-3" value="&lt;div&gt;Patients appointment info&lt;br&gt;&lt;/div&gt;" style="ellipse;whiteSpace=wrap;html=1;" parent="1" vertex="1">
          <mxGeometry x="40" y="190" width="100" height="70" as="geometry" />
        </mxCell>
        <mxCell id="38nFqftCNJOTsRTNbehu-4" value="Appointment" style="ellipse;whiteSpace=wrap;html=1;" parent="1" vertex="1">
          <mxGeometry x="660" y="260" width="90" height="53.33" as="geometry" />
        </mxCell>
        <mxCell id="38nFqftCNJOTsRTNbehu-7" style="edgeStyle=none;rounded=0;orthogonalLoop=1;jettySize=auto;html=1;" parent="1" target="38nFqftCNJOTsRTNbehu-4" edge="1">
          <mxGeometry relative="1" as="geometry">
            <mxPoint x="570" y="286.66739999999993" as="sourcePoint" />
          </mxGeometry>
        </mxCell>
        <mxCell id="38nFqftCNJOTsRTNbehu-8" value="" style="group" parent="1" vertex="1" connectable="0">
          <mxGeometry x="240" y="256.65999999999997" width="130" height="60" as="geometry" />
        </mxCell>
        <mxCell id="38nFqftCNJOTsRTNbehu-9" value="" style="shape=cylinder3;whiteSpace=wrap;html=1;boundedLbl=1;backgroundOutline=1;size=15;rotation=90;" parent="38nFqftCNJOTsRTNbehu-8" vertex="1">
          <mxGeometry x="35" y="-35" width="60" height="130" as="geometry" />
        </mxCell>
        <mxCell id="38nFqftCNJOTsRTNbehu-10" value="Slot management" style="text;html=1;strokeColor=none;fillColor=none;align=center;verticalAlign=middle;whiteSpace=wrap;rounded=0;" parent="38nFqftCNJOTsRTNbehu-8" vertex="1">
          <mxGeometry x="30" y="15" width="60" height="30" as="geometry" />
        </mxCell>
        <mxCell id="38nFqftCNJOTsRTNbehu-14" value="" style="group" parent="1" vertex="1" connectable="0">
          <mxGeometry x="440" y="256.66999999999996" width="130" height="60" as="geometry" />
        </mxCell>
        <mxCell id="38nFqftCNJOTsRTNbehu-15" value="" style="shape=cylinder3;whiteSpace=wrap;html=1;boundedLbl=1;backgroundOutline=1;size=15;rotation=90;" parent="38nFqftCNJOTsRTNbehu-14" vertex="1">
          <mxGeometry x="35" y="-35" width="60" height="130" as="geometry" />
        </mxCell>
        <mxCell id="38nFqftCNJOTsRTNbehu-16" value="Scheduling algorithm" style="text;html=1;strokeColor=none;fillColor=none;align=center;verticalAlign=middle;whiteSpace=wrap;rounded=0;" parent="38nFqftCNJOTsRTNbehu-14" vertex="1">
          <mxGeometry x="30" y="15" width="60" height="30" as="geometry" />
        </mxCell>
        <mxCell id="HP9JHPgwAWcggYvqGqzr-11" style="edgeStyle=none;rounded=0;orthogonalLoop=1;jettySize=auto;html=1;entryX=0.855;entryY=1;entryDx=0;entryDy=-4.35;entryPerimeter=0;" parent="1" source="HP9JHPgwAWcggYvqGqzr-10" target="38nFqftCNJOTsRTNbehu-9" edge="1">
          <mxGeometry relative="1" as="geometry" />
        </mxCell>
        <mxCell id="HP9JHPgwAWcggYvqGqzr-10" value="Doctors info and availability" style="ellipse;whiteSpace=wrap;html=1;" parent="1" vertex="1">
          <mxGeometry x="40" y="320" width="100" height="70" as="geometry" />
        </mxCell>
        <mxCell id="HP9JHPgwAWcggYvqGqzr-12" style="edgeStyle=none;rounded=0;orthogonalLoop=1;jettySize=auto;html=1;entryX=0.5;entryY=1;entryDx=0;entryDy=0;entryPerimeter=0;" parent="1" source="38nFqftCNJOTsRTNbehu-9" target="38nFqftCNJOTsRTNbehu-15" edge="1">
          <mxGeometry relative="1" as="geometry" />
        </mxCell>
      </root>
    </mxGraphModel>
  </diagram>
  <diagram name="P&amp;F Recommendation" id="QolZZI7IaemLjrOdinJS">
    <mxGraphModel dx="796" dy="452" grid="1" gridSize="10" guides="1" tooltips="1" connect="1" arrows="1" fold="1" page="1" pageScale="1" pageWidth="850" pageHeight="1100" math="0" shadow="0">
      <root>
        <mxCell id="gaaFz092RPs9VrREoE1W-0" />
        <mxCell id="gaaFz092RPs9VrREoE1W-1" parent="gaaFz092RPs9VrREoE1W-0" />
        <mxCell id="zx3auEbYp1yEfGgA5pmt-27" value="" style="rounded=0;whiteSpace=wrap;html=1;" parent="gaaFz092RPs9VrREoE1W-1" vertex="1">
          <mxGeometry x="190" y="190" width="630" height="310" as="geometry" />
        </mxCell>
        <mxCell id="zx3auEbYp1yEfGgA5pmt-0" style="edgeStyle=none;rounded=0;orthogonalLoop=1;jettySize=auto;html=1;entryX=0.5;entryY=1;entryDx=0;entryDy=0;entryPerimeter=0;" parent="gaaFz092RPs9VrREoE1W-1" source="zx3auEbYp1yEfGgA5pmt-1" target="zx3auEbYp1yEfGgA5pmt-5" edge="1">
          <mxGeometry relative="1" as="geometry">
            <mxPoint x="240" y="227.5" as="targetPoint" />
          </mxGeometry>
        </mxCell>
        <mxCell id="zx3auEbYp1yEfGgA5pmt-1" value="&lt;div&gt;Symptoms&lt;br&gt;&lt;/div&gt;" style="ellipse;whiteSpace=wrap;html=1;" parent="gaaFz092RPs9VrREoE1W-1" vertex="1">
          <mxGeometry x="60" y="251.66" width="100" height="70" as="geometry" />
        </mxCell>
        <mxCell id="zx3auEbYp1yEfGgA5pmt-2" value="recommended doctor" style="ellipse;whiteSpace=wrap;html=1;" parent="gaaFz092RPs9VrREoE1W-1" vertex="1">
          <mxGeometry x="870" y="256.67" width="130" height="60" as="geometry" />
        </mxCell>
        <mxCell id="zx3auEbYp1yEfGgA5pmt-4" value="" style="group" parent="gaaFz092RPs9VrREoE1W-1" vertex="1" connectable="0">
          <mxGeometry x="240" y="256.65999999999997" width="130" height="60" as="geometry" />
        </mxCell>
        <mxCell id="zx3auEbYp1yEfGgA5pmt-5" value="" style="shape=cylinder3;whiteSpace=wrap;html=1;boundedLbl=1;backgroundOutline=1;size=15;rotation=90;" parent="zx3auEbYp1yEfGgA5pmt-4" vertex="1">
          <mxGeometry x="35" y="-35" width="60" height="130" as="geometry" />
        </mxCell>
        <mxCell id="zx3auEbYp1yEfGgA5pmt-6" value="Extract tags " style="text;html=1;strokeColor=none;fillColor=none;align=center;verticalAlign=middle;whiteSpace=wrap;rounded=0;" parent="zx3auEbYp1yEfGgA5pmt-4" vertex="1">
          <mxGeometry x="30" y="15" width="60" height="30" as="geometry" />
        </mxCell>
        <mxCell id="zx3auEbYp1yEfGgA5pmt-7" value="" style="group" parent="gaaFz092RPs9VrREoE1W-1" vertex="1" connectable="0">
          <mxGeometry x="440" y="256.66999999999996" width="130" height="60" as="geometry" />
        </mxCell>
        <mxCell id="zx3auEbYp1yEfGgA5pmt-8" value="" style="shape=cylinder3;whiteSpace=wrap;html=1;boundedLbl=1;backgroundOutline=1;size=15;rotation=90;" parent="zx3auEbYp1yEfGgA5pmt-7" vertex="1">
          <mxGeometry x="35" y="-35" width="60" height="130" as="geometry" />
        </mxCell>
        <mxCell id="zx3auEbYp1yEfGgA5pmt-9" value="find doctors" style="text;html=1;strokeColor=none;fillColor=none;align=center;verticalAlign=middle;whiteSpace=wrap;rounded=0;" parent="zx3auEbYp1yEfGgA5pmt-7" vertex="1">
          <mxGeometry x="30" y="15" width="60" height="30" as="geometry" />
        </mxCell>
        <mxCell id="zx3auEbYp1yEfGgA5pmt-25" style="edgeStyle=none;rounded=0;orthogonalLoop=1;jettySize=auto;html=1;entryX=0.5;entryY=1;entryDx=0;entryDy=0;entryPerimeter=0;" parent="gaaFz092RPs9VrREoE1W-1" source="zx3auEbYp1yEfGgA5pmt-11" target="zx3auEbYp1yEfGgA5pmt-22" edge="1">
          <mxGeometry relative="1" as="geometry" />
        </mxCell>
        <mxCell id="zx3auEbYp1yEfGgA5pmt-11" value="patient feedback" style="ellipse;whiteSpace=wrap;html=1;" parent="gaaFz092RPs9VrREoE1W-1" vertex="1">
          <mxGeometry x="255" y="380" width="100" height="70" as="geometry" />
        </mxCell>
        <mxCell id="zx3auEbYp1yEfGgA5pmt-12" style="edgeStyle=none;rounded=0;orthogonalLoop=1;jettySize=auto;html=1;entryX=0.5;entryY=1;entryDx=0;entryDy=0;entryPerimeter=0;" parent="gaaFz092RPs9VrREoE1W-1" source="zx3auEbYp1yEfGgA5pmt-5" target="zx3auEbYp1yEfGgA5pmt-8" edge="1">
          <mxGeometry relative="1" as="geometry" />
        </mxCell>
        <mxCell id="zx3auEbYp1yEfGgA5pmt-14" value="" style="group" parent="gaaFz092RPs9VrREoE1W-1" vertex="1" connectable="0">
          <mxGeometry x="650" y="256.67" width="130" height="60" as="geometry" />
        </mxCell>
        <mxCell id="zx3auEbYp1yEfGgA5pmt-15" value="" style="shape=cylinder3;whiteSpace=wrap;html=1;boundedLbl=1;backgroundOutline=1;size=15;rotation=90;" parent="zx3auEbYp1yEfGgA5pmt-14" vertex="1">
          <mxGeometry x="35" y="-35" width="60" height="130" as="geometry" />
        </mxCell>
        <mxCell id="zx3auEbYp1yEfGgA5pmt-16" value="Generate doctor list" style="text;html=1;strokeColor=none;fillColor=none;align=center;verticalAlign=middle;whiteSpace=wrap;rounded=0;" parent="zx3auEbYp1yEfGgA5pmt-14" vertex="1">
          <mxGeometry x="30" y="15" width="60" height="30" as="geometry" />
        </mxCell>
        <mxCell id="zx3auEbYp1yEfGgA5pmt-17" style="edgeStyle=none;rounded=0;orthogonalLoop=1;jettySize=auto;html=1;entryX=0.5;entryY=1;entryDx=0;entryDy=0;entryPerimeter=0;" parent="gaaFz092RPs9VrREoE1W-1" source="zx3auEbYp1yEfGgA5pmt-8" target="zx3auEbYp1yEfGgA5pmt-15" edge="1">
          <mxGeometry relative="1" as="geometry" />
        </mxCell>
        <mxCell id="zx3auEbYp1yEfGgA5pmt-18" style="edgeStyle=none;rounded=0;orthogonalLoop=1;jettySize=auto;html=1;entryX=0;entryY=0.5;entryDx=0;entryDy=0;" parent="gaaFz092RPs9VrREoE1W-1" source="zx3auEbYp1yEfGgA5pmt-15" target="zx3auEbYp1yEfGgA5pmt-2" edge="1">
          <mxGeometry relative="1" as="geometry" />
        </mxCell>
        <mxCell id="zx3auEbYp1yEfGgA5pmt-21" value="" style="group" parent="gaaFz092RPs9VrREoE1W-1" vertex="1" connectable="0">
          <mxGeometry x="440" y="385" width="130" height="60" as="geometry" />
        </mxCell>
        <mxCell id="zx3auEbYp1yEfGgA5pmt-22" value="" style="shape=cylinder3;whiteSpace=wrap;html=1;boundedLbl=1;backgroundOutline=1;size=15;rotation=90;" parent="zx3auEbYp1yEfGgA5pmt-21" vertex="1">
          <mxGeometry x="35" y="-35" width="60" height="130" as="geometry" />
        </mxCell>
        <mxCell id="zx3auEbYp1yEfGgA5pmt-23" value="Statistical analysis" style="text;html=1;strokeColor=none;fillColor=none;align=center;verticalAlign=middle;whiteSpace=wrap;rounded=0;" parent="zx3auEbYp1yEfGgA5pmt-21" vertex="1">
          <mxGeometry x="30" y="15" width="60" height="30" as="geometry" />
        </mxCell>
        <mxCell id="zx3auEbYp1yEfGgA5pmt-26" style="edgeStyle=none;rounded=0;orthogonalLoop=1;jettySize=auto;html=1;entryX=0.855;entryY=1;entryDx=0;entryDy=-4.35;entryPerimeter=0;" parent="gaaFz092RPs9VrREoE1W-1" source="zx3auEbYp1yEfGgA5pmt-22" target="zx3auEbYp1yEfGgA5pmt-15" edge="1">
          <mxGeometry relative="1" as="geometry" />
        </mxCell>
      </root>
    </mxGraphModel>
  </diagram>
</mxfile>
